<svg xmlns="http://www.w3.org/2000/svg" viewBox="0 0 64 64" role="img" aria-label="3D camera icon">
  <defs>
    <linearGradient id="body" x1="12" x2="52" y1="19" y2="55" gradientUnits="userSpaceOnUse">
      <stop offset="0" stop-color="#fff7e6"/>
      <stop offset="0.35" stop-color="#f3f6ff"/>
      <stop offset="1" stop-color="#9aa8c7"/>
    </linearGradient>
    <linearGradient id="top" x1="18" x2="42" y1="12" y2="30" gradientUnits="userSpaceOnUse">
      <stop offset="0" stop-color="#ffffff"/>
      <stop offset="1" stop-color="#c9d2ea"/>
    </linearGradient>
    <radialGradient id="lens" cx="0" cy="0" r="1" gradientTransform="matrix(15 16 -16 15 32 36)" gradientUnits="userSpaceOnUse">
      <stop offset="0" stop-color="#bff4ff"/>
      <stop offset="0.34" stop-color="#3182f6"/>
      <stop offset="0.7" stop-color="#1732a8"/>
      <stop offset="1" stop-color="#07153f"/>
    </radialGradient>
    <linearGradient id="rim" x1="22" x2="43" y1="25" y2="48" gradientUnits="userSpaceOnUse">
      <stop offset="0" stop-color="#ffffff"/>
      <stop offset="1" stop-color="#546179"/>
    </linearGradient>
    <filter id="shadow" x="6" y="9" width="54" height="54" color-interpolation-filters="sRGB" filterUnits="userSpaceOnUse">
      <feDropShadow dx="0" dy="3" stdDeviation="3" flood-color="#191f28" flood-opacity="0.24"/>
    </filter>
  </defs>
  <g filter="url(#shadow)">
    <path d="M19.5 22.5h5.1l4-6.1h8.8l4 6.1h4.7c4.7 0 8.4 3.8 8.4 8.5v13.1c0 4.7-3.7 8.5-8.4 8.5H18.9c-4.7 0-8.4-3.8-8.4-8.5V31c0-4.7 3.8-8.5 8.4-8.5Z" fill="url(#body)"/>
    <path d="M24.8 22.5h16.4l-3.8-6.1h-8.8l-3.8 6.1Z" fill="url(#top)"/>
    <path d="M15.2 30.2c.7-3.1 3-4.8 6.4-4.8h24.1c3.1 0 5.4 1.6 6.5 4.3-5.5-1.4-12.2-2.1-19.7-2.1-7.1 0-13 .7-17.3 2.1Z" fill="#ffffff" opacity="0.72"/>
    <circle cx="32" cy="37" r="14.2" fill="url(#rim)"/>
    <circle cx="32" cy="37" r="10.8" fill="url(#lens)"/>
    <circle cx="27.7" cy="32.7" r="3.5" fill="#ffffff" opacity="0.78"/>
    <path d="M34.8 28.3c4.2 1.1 7.3 4.9 7.3 9.5 0 4-2.4 7.4-5.8 8.9 2.3-2.3 3.4-5.5 2.8-9.1-.5-3.8-2.2-6.8-4.3-9.3Z" fill="#7fe3ff" opacity="0.34"/>
    <path d="M17 26.8h8.3v5.1H17z" fill="#68758f"/>
    <path d="M18.2 27.7h6.1v1.2h-6.1z" fill="#ffffff" opacity="0.46"/>
  </g>
</svg>
